<svg width="30" height="30" viewBox="0 0 40 30" fill="none" xmlns="http://www.w3.org/2000/svg">
    <path d="M8.68132 16.25H27.298L19.1646 22.35C18.5146 22.8375 18.5146 23.6375 19.1646 24.125C19.8146 24.6125 20.8646 24.6125 21.5146 24.125L32.498 15.8875C33.148 15.4 33.148 14.6125 32.498 14.125L21.5313 5.87499C21.2199 5.64093 20.7972 5.50938 20.3563 5.50938C19.9155 5.50938 19.4927 5.64093 19.1813 5.87499C18.5313 6.36249 18.5313 7.14999 19.1813 7.63749L27.298 13.75H8.68132C7.76465 13.75 7.01465 14.3125 7.01465 15C7.01465 15.6875 7.76465 16.25 8.68132 16.25Z" fill="#4DA0FD"/>
</svg>
