<svg width="20" height="20" viewBox="0 0 26 20" fill="none" xmlns="http://www.w3.org/2000/svg">
    <path d="M24.3188 8.75623H5.70215L13.8355 2.65623C14.4855 2.16873 14.4855 1.36873 13.8355 0.881232C13.5241 0.647166 13.1013 0.515625 12.6605 0.515625C12.2196 0.515625 11.7969 0.647166 11.4855 0.881232L0.502148 9.11873C-0.147852 9.60623 -0.147852 10.3937 0.502148 10.8812L11.4855 19.1187C12.1355 19.6062 13.1855 19.6062 13.8355 19.1187C14.4855 18.6312 14.4855 17.8437 13.8355 17.3562L5.70215 11.2562H24.3188C25.2355 11.2562 25.9855 10.6937 25.9855 10.0062C25.9855 9.31873 25.2355 8.75623 24.3188 8.75623Z"
         />
</svg>
